<?xml version="1.0" encoding="UTF-8" standalone="no"?>
<svg
   height="512px"
   id="Layer_1"
   style="enable-background:new 0 0 512 512;"
   version="1.1"
   viewBox="0 0 512 512"
   width="512px"
   xml:space="preserve"
   sodipodi:docname="down_arrow.svg"
   inkscape:version="1.2.1 (9c6d41e410, 2022-07-14)"
   xmlns:inkscape="http://www.inkscape.org/namespaces/inkscape"
   xmlns:sodipodi="http://sodipodi.sourceforge.net/DTD/sodipodi-0.dtd"
   xmlns="http://www.w3.org/2000/svg"
   xmlns:svg="http://www.w3.org/2000/svg"><defs
     id="defs21" /><sodipodi:namedview
     id="namedview19"
     pagecolor="#ffffff"
     bordercolor="#999999"
     borderopacity="1"
     inkscape:showpageshadow="0"
     inkscape:pageopacity="0"
     inkscape:pagecheckerboard="0"
     inkscape:deskcolor="#d1d1d1"
     showgrid="false"
     inkscape:zoom="2.0058594"
     inkscape:cx="255.75073"
     inkscape:cy="255.75073"
     inkscape:window-width="2560"
     inkscape:window-height="1369"
     inkscape:window-x="-8"
     inkscape:window-y="-8"
     inkscape:window-maximized="1"
     inkscape:current-layer="Layer_1" /><path
     d="M98.9,184.7l1.8,2.1l136,156.5c4.6,5.3,11.5,8.6,19.2,8.6c7.7,0,14.6-3.4,19.2-8.6L411,187.1l2.3-2.6  c1.7-2.5,2.7-5.5,2.7-8.7c0-8.7-7.4-15.8-16.6-15.8v0H112.6v0c-9.2,0-16.6,7.1-16.6,15.8C96,179.1,97.1,182.2,98.9,184.7z"
     id="path16" /><path
     style="fill:#ffffff;stroke-width:0.498539"
     d="m 248.27264,350.33572 c -4.08258,-1.39699 -7.18698,-3.2196 -9.66186,-5.67252 -1.06397,-1.05454 -32.92064,-37.54893 -70.7926,-81.09866 -48.13323,-55.34938 -69.230716,-79.9576 -70.096107,-81.76047 -1.803391,-3.75702 -1.75268,-8.54463 0.131139,-12.3807 2.335148,-4.75512 6.517238,-7.82412 12.057478,-8.84829 4.1604,-0.76909 288.01822,-0.76909 292.17862,0 5.54024,1.02417 9.72233,4.09317 12.05748,8.84829 1.8471,3.7613 1.9273,9.14546 0.18611,12.49422 -1.26534,2.43358 -139.4392,161.50992 -142.46906,164.02131 -6.16188,5.10745 -16.10095,6.95985 -23.5912,4.39682 z"
     id="path263" /></svg>
