<?xml version="1.0" encoding="UTF-8" standalone="no"?>
<svg
   height="512px"
   id="Layer_1"
   style="enable-background:new 0 0 512 512;"
   version="1.1"
   viewBox="0 0 512 512"
   width="512px"
   xml:space="preserve"
   sodipodi:docname="right_arrow.svg"
   inkscape:version="1.2.1 (9c6d41e410, 2022-07-14)"
   xmlns:inkscape="http://www.inkscape.org/namespaces/inkscape"
   xmlns:sodipodi="http://sodipodi.sourceforge.net/DTD/sodipodi-0.dtd"
   xmlns="http://www.w3.org/2000/svg"
   xmlns:svg="http://www.w3.org/2000/svg"><defs
     id="defs282" /><sodipodi:namedview
     id="namedview280"
     pagecolor="#ffffff"
     bordercolor="#999999"
     borderopacity="1"
     inkscape:showpageshadow="0"
     inkscape:pageopacity="0"
     inkscape:pagecheckerboard="0"
     inkscape:deskcolor="#d1d1d1"
     showgrid="false"
     inkscape:zoom="2.0058594"
     inkscape:cx="255.75073"
     inkscape:cy="255.75073"
     inkscape:window-width="2560"
     inkscape:window-height="1369"
     inkscape:window-x="-8"
     inkscape:window-y="-8"
     inkscape:window-maximized="1"
     inkscape:current-layer="Layer_1" /><path
     d="M184.7,413.1l2.1-1.8l156.5-136c5.3-4.6,8.6-11.5,8.6-19.2c0-7.7-3.4-14.6-8.6-19.2L187.1,101l-2.6-2.3  C182,97,179,96,175.8,96c-8.7,0-15.8,7.4-15.8,16.6h0v286.8h0c0,9.2,7.1,16.6,15.8,16.6C179.1,416,182.2,414.9,184.7,413.1z"
     id="path277" /><path
     style="fill:#ffffff;stroke-width:0.498539"
     d="m 171.10121,414.86789 c -4.51449,-1.61123 -8.5613,-5.77101 -10.17985,-10.46401 -0.83427,-2.41898 -1.21696,-288.51636 -0.39312,-293.89404 0.90712,-5.92129 3.92559,-10.21618 8.89513,-12.656628 3.94911,-1.93933 9.15469,-1.936741 12.79279,0.0064 3.34249,1.785211 161.90532,139.906178 164.37548,143.184248 3.02153,4.00977 4.47249,8.20074 4.75767,13.74217 0.18555,3.60527 0.037,5.49023 -0.60883,7.72736 -1.17326,4.06391 -3.45489,8.202 -5.94007,10.77327 -1.14633,1.18603 -37.70405,33.11572 -81.23938,70.95486 -55.3893,48.14214 -79.90731,69.1505 -81.66037,69.971 -3.43035,1.60556 -7.4532,1.8497 -10.79945,0.65541 z"
     id="path338" /></svg>
